<svg width="1693" height="126" viewBox="0 0 1693 126" fill="none" xmlns="http://www.w3.org/2000/svg">
<path d="M225.341 56.88C234.389 64.8 238.913 74.58 238.913 86.22C238.913 97.26 234.885 106.68 226.828 114.48C218.895 122.16 209.227 126 197.824 126H10.2259C7.37501 126 4.95799 125.04 2.97479 123.12C0.991597 121.08 0 118.68 0 115.92V9.9C0 7.14 0.991597 4.8 2.97479 2.88001C5.08194 0.960002 7.49896 0 10.2259 0H201.17C210.715 0 218.833 3.24 225.527 9.72C232.22 16.2 235.566 24.06 235.566 33.3C235.566 42.42 232.158 50.28 225.341 56.88ZM214.929 33.3C214.929 30.9 214.309 28.68 213.07 26.64C211.83 24.6 210.157 22.98 208.05 21.78C205.942 20.58 203.649 19.98 201.17 19.98H20.6376V46.44H197.824C198.691 46.44 199.807 46.5 201.17 46.62V46.44C205.013 46.44 208.236 45.18 210.838 42.66C213.565 40.02 214.929 36.9 214.929 33.3ZM197.824 106.02C203.525 106.02 208.359 104.1 212.326 100.26C216.292 96.42 218.275 91.8 218.275 86.4C218.275 80.88 216.292 76.2 212.326 72.36C208.359 68.4 203.525 66.42 197.824 66.42H20.6376V106.02H197.824Z" fill="#D7D7D7"/>
<path d="M458.786 66.42H281.6V106.02H458.786C460.646 106.02 462.381 106.5 463.992 107.46C465.604 108.3 466.843 109.5 467.711 111.06C468.702 112.5 469.198 114.18 469.198 116.1C469.198 118.74 468.145 121.08 466.037 123.12C464.054 125.04 461.637 126 458.786 126H271.188C268.338 126 265.921 125.04 263.937 123.12C261.954 121.08 260.963 118.74 260.963 116.1V9.9C260.963 7.26 261.954 4.98 263.937 3.06C266.045 1.02 268.462 0 271.188 0H458.786C461.637 0 464.054 0.960002 466.037 2.88001C468.145 4.8 469.198 7.14 469.198 9.9C469.198 12.66 468.145 15.06 466.037 17.1C464.054 19.02 461.637 19.98 458.786 19.98H281.6V46.44H458.786C460.646 46.44 462.381 46.92 463.992 47.88C465.604 48.72 466.843 49.92 467.711 51.48C468.702 53.04 469.198 54.72 469.198 56.52C469.198 59.28 468.145 61.62 466.037 63.54C464.054 65.46 461.637 66.42 458.786 66.42Z" fill="#D7D7D7"/>
<path d="M698.75 117.72C698.626 117.84 698.502 118.14 698.378 118.62C698.254 118.98 698.192 119.28 698.192 119.52C698.068 119.76 697.882 120.12 697.634 120.6C697.634 120.6 697.634 120.66 697.634 120.78C697.51 120.9 697.448 120.96 697.448 120.96C697.448 121.08 697.386 121.2 697.262 121.32C697.138 121.56 696.89 121.86 696.518 122.22C696.271 122.58 696.085 122.82 695.961 122.94C695.837 123.06 695.589 123.3 695.217 123.66C694.969 123.9 694.721 124.08 694.473 124.2C694.349 124.32 694.039 124.5 693.544 124.74C693.172 124.86 692.924 124.98 692.8 125.1C692.676 125.22 692.366 125.34 691.87 125.46C691.375 125.58 691.065 125.64 690.941 125.64C690.693 125.76 690.383 125.82 690.011 125.82C689.515 125.94 689.143 126 688.896 126C688.896 126 688.834 126 688.71 126C688.586 126 688.524 126 688.524 126C688.524 126 688.4 126 688.152 126C688.028 126 687.966 126 687.966 126C687.47 125.88 687.098 125.82 686.85 125.82C686.603 125.82 686.293 125.76 685.921 125.64C685.425 125.52 685.115 125.4 684.991 125.28C684.619 125.16 684.247 125.04 683.876 124.92C683.876 124.92 683.814 124.92 683.69 124.92C683.566 124.8 683.442 124.68 683.318 124.56L511.338 27.36V116.1C511.338 118.86 510.284 121.2 508.177 123.12C506.194 125.04 503.777 126 500.926 126C498.075 126 495.658 125.04 493.675 123.12C491.692 121.2 490.7 118.86 490.7 116.1V10.08C490.7 9.96 490.7 9.84 490.7 9.72C490.7 9.6 490.7 9.48001 490.7 9.36001C490.824 9 490.886 8.64 490.886 8.28C490.886 8.04 490.948 7.74 491.072 7.38C491.196 7.02 491.32 6.72 491.444 6.48C491.568 6.24001 491.692 5.88001 491.816 5.4C491.816 5.4 491.878 5.34001 492.001 5.22001C492.001 5.1 492.063 5.04 492.187 5.04V4.86L492.373 4.68C492.497 4.44 492.683 4.14 492.931 3.78C493.303 3.42 493.489 3.18 493.489 3.06C493.613 2.94 493.861 2.76 494.233 2.52C494.604 2.16 494.852 1.98001 494.976 1.98001C495.1 1.86 495.348 1.68 495.72 1.44C496.216 1.20001 496.588 1.02 496.835 0.899999C496.959 0.780001 497.269 0.660002 497.765 0.540004C498.261 0.420005 498.571 0.360006 498.695 0.360006C498.819 0.24 499.129 0.179998 499.624 0.179998C500.12 0.0599992 500.492 0 500.74 0C500.74 0 500.802 0 500.926 0C501.05 0 501.174 0 501.298 0C501.422 0 501.546 0 501.67 0C502.041 0.119998 502.413 0.179998 502.785 0.179998C502.909 0.179998 503.219 0.24 503.715 0.360006C504.087 0.480005 504.396 0.600003 504.644 0.720001C504.892 0.84 505.264 0.960002 505.76 1.08001C505.76 1.08001 505.822 1.14001 505.946 1.26001C506.07 1.26001 506.132 1.32 506.132 1.44L678.298 98.64V9.9C678.298 7.14 679.289 4.8 681.273 2.88001C683.256 0.960002 685.673 0 688.524 0C691.375 0 693.792 0.960002 695.775 2.88001C697.882 4.8 698.936 7.14 698.936 9.9V116.1C698.936 116.1 698.874 116.16 698.75 116.28C698.75 116.4 698.75 116.52 698.75 116.64C698.75 117 698.75 117.36 698.75 117.72Z" fill="#D7D7D7"/>
<path d="M935.32 66.42H758.134V106.02H935.32C937.179 106.02 938.914 106.5 940.526 107.46C942.137 108.3 943.376 109.5 944.244 111.06C945.236 112.5 945.731 114.18 945.731 116.1C945.731 118.74 944.678 121.08 942.571 123.12C940.588 125.04 938.171 126 935.32 126H747.722C744.871 126 742.454 125.04 740.471 123.12C738.488 121.08 737.496 118.74 737.496 116.1V9.9C737.496 7.26 738.488 4.98 740.471 3.06C742.578 1.02 744.995 0 747.722 0H935.32C938.171 0 940.588 0.960002 942.571 2.88001C944.678 4.8 945.731 7.14 945.731 9.9C945.731 12.66 944.678 15.06 942.571 17.1C940.588 19.02 938.171 19.98 935.32 19.98H758.134V46.44H935.32C937.179 46.44 938.914 46.92 940.526 47.88C942.137 48.72 943.376 49.92 944.244 51.48C945.236 53.04 945.731 54.72 945.731 56.52C945.731 59.28 944.678 61.62 942.571 63.54C940.588 65.46 938.171 66.42 935.32 66.42Z" fill="#D7D7D7"/>
<path d="M1164.87 46.44C1167.72 46.44 1170.14 47.46 1172.12 49.5C1174.23 51.42 1175.28 53.76 1175.28 56.52C1175.28 57.6 1175.1 58.68 1174.73 59.76C1174.35 60.72 1173.86 61.62 1173.24 62.46C1172.62 63.18 1171.87 63.9 1171.01 64.62C1170.14 65.22 1169.15 65.7 1168.03 66.06C1167.04 66.3 1165.99 66.42 1164.87 66.42H987.685V116.1C987.685 118.74 986.631 121.08 984.524 123.12C982.541 125.04 980.124 126 977.273 126C974.422 126 972.005 125.04 970.022 123.12C968.039 121.08 967.047 118.74 967.047 116.1V9.9C967.047 7.26 968.039 4.98 970.022 3.06C972.129 1.02 974.546 0 977.273 0H1164.87C1167.72 0 1170.14 0.960002 1172.12 2.88001C1174.23 4.8 1175.28 7.14 1175.28 9.9C1175.28 12.66 1174.23 15.06 1172.12 17.1C1170.14 19.02 1167.72 19.98 1164.87 19.98H987.685V46.44H1164.87Z" fill="#D7D7D7"/>
<path d="M1193.04 2.88001C1195.02 0.960002 1197.44 0 1200.29 0C1203.14 0 1205.56 0.960002 1207.54 2.88001C1209.65 4.8 1210.7 7.14 1210.7 9.9V116.1C1210.7 117.9 1210.2 119.58 1209.21 121.14C1208.35 122.58 1207.11 123.78 1205.49 124.74C1204.01 125.58 1202.27 126 1200.29 126C1197.44 126 1195.02 125.04 1193.04 123.12C1191.05 121.08 1190.06 118.74 1190.06 116.1V9.9C1190.06 7.14 1191.05 4.8 1193.04 2.88001Z" fill="#D7D7D7"/>
<path d="M1420.31 0C1423.16 0 1425.58 0.960002 1427.56 2.88001C1429.67 4.8 1430.72 7.14 1430.72 9.9C1430.72 12.66 1429.67 15.06 1427.56 17.1C1425.58 19.02 1423.16 19.98 1420.31 19.98H1336.83V116.1C1336.83 118.86 1335.84 121.2 1333.85 123.12C1331.87 125.04 1329.45 126 1326.6 126C1323.75 126 1321.27 125.04 1319.17 123.12C1317.18 121.2 1316.19 118.86 1316.19 116.1V19.98H1232.71C1229.86 19.98 1227.44 19.02 1225.46 17.1C1223.48 15.06 1222.49 12.66 1222.49 9.9C1222.49 7.14 1223.48 4.8 1225.46 2.88001C1227.44 0.960002 1229.86 0 1232.71 0H1420.31Z" fill="#D7D7D7"/>
<path d="M1657.12 53.1C1667.16 53.58 1675.65 57.36 1682.59 64.44C1689.53 71.4 1693 79.74 1693 89.46C1693 99.54 1689.28 108.18 1681.84 115.38C1674.53 122.46 1665.67 126 1655.26 126H1455.76C1453.9 126 1452.17 125.58 1450.55 124.74C1448.94 123.78 1447.7 122.58 1446.84 121.14C1445.97 119.58 1445.53 117.9 1445.53 116.1C1445.53 113.34 1446.53 111 1448.51 109.08C1450.49 107.04 1452.91 106.02 1455.76 106.02H1655.26C1659.97 106.02 1664 104.4 1667.34 101.16C1670.69 97.92 1672.36 94.02 1672.36 89.46C1672.36 84.9 1670.69 81 1667.34 77.76C1664 74.52 1659.97 72.9 1655.26 72.9H1467.85C1458.3 72.9 1450.18 69.66 1443.49 63.18C1436.8 56.7 1433.45 48.9 1433.45 39.78C1433.45 30.54 1436.8 22.68 1443.49 16.2C1450.18 9.72 1458.3 6.48 1467.85 6.48H1669.02C1671.87 6.48 1674.28 7.5 1676.27 9.54C1678.25 11.46 1679.24 13.8 1679.24 16.56C1679.24 19.32 1678.25 21.66 1676.27 23.58C1674.28 25.5 1671.87 26.46 1669.02 26.46H1467.85C1464 26.46 1460.72 27.78 1457.99 30.42C1455.39 32.94 1454.09 36.06 1454.09 39.78C1454.09 43.38 1455.39 46.5 1457.99 49.14C1460.72 51.78 1464 53.1 1467.85 53.1H1657.12Z" fill="#D7D7D7"/>
</svg>
