<svg width="26" height="42" viewBox="0 0 26 42" fill="none" xmlns="http://www.w3.org/2000/svg">
<path d="M26 13.6824C26 5.37149 20.8999 0 13 0C5.10006 0 0 5.37149 0 13.6824C0 20.6099 10.2397 34.5167 11.4098 36.0727L12.8399 37.9942C6.84967 38.0106 2.01893 38.8998 2.01893 39.9964C2.01893 41.1029 6.93819 42 13.0063 42C19.0744 42 23.9936 41.1029 23.9936 39.9964C23.9936 38.8992 19.1572 38.0093 13.1613 37.9942L14.6002 36.0727C15.7597 34.5068 26 20.6 26 13.6824ZM8.79013 13.6732C8.79013 11.308 10.6747 9.39043 13 9.39043C15.3253 9.39043 17.2099 11.308 17.2099 13.6732C17.2099 16.0383 15.3253 17.9559 13 17.9559C10.6747 17.9559 8.79013 16.0383 8.79013 13.6732Z" fill="#DDFF00"/>
</svg>
