<svg width="16" height="16" viewBox="0 0 16 16" fill="none" xmlns="http://www.w3.org/2000/svg">
<path fill-rule="evenodd" clip-rule="evenodd" d="M7.99967 1.33366C4.31753 1.33366 1.33301 4.31819 1.33301 8.00033C1.33301 11.6825 4.31753 14.667 7.99967 14.667C11.6818 14.667 14.6663 11.6825 14.6663 8.00033C14.6663 4.31819 11.6818 1.33366 7.99967 1.33366ZM7.99967 2.33366C11.1295 2.33366 13.6663 4.87047 13.6663 8.00033C13.6663 11.1302 11.1295 13.667 7.99967 13.667C4.86982 13.667 2.33301 11.1302 2.33301 8.00033C2.33301 4.87047 4.86982 2.33366 7.99967 2.33366ZM8.26951 5.16342C8.2364 4.91937 8.02721 4.73126 7.77408 4.73126C7.49793 4.73126 7.27408 4.95512 7.27408 5.23126V8.4626L7.27965 8.53709C7.30173 8.68379 7.3883 8.81467 7.51792 8.892L10.0313 10.3913L10.0919 10.4222C10.3184 10.5188 10.5871 10.4355 10.7168 10.2181L10.7476 10.1575C10.8442 9.93093 10.761 9.66222 10.5436 9.53253L8.27381 8.178L8.27408 5.23126L8.26951 5.16342Z" fill="#0B0707"/>
</svg>
