<svg width="24" height="24" viewBox="0 0 24 24" fill="none" xmlns="http://www.w3.org/2000/svg">
<path fill-rule="evenodd" clip-rule="evenodd" d="M12.2172 23.3817C18.7253 23.3817 24 18.1477 24 11.6913C24 5.23481 18.7261 0.0015652 12.2187 0C5.71063 0 0.437474 5.23403 0.436691 11.6905C0.436691 13.8974 1.05416 15.965 2.12632 17.7259L0 24L6.52297 21.9285C8.21182 22.8535 10.1519 23.3817 12.2172 23.3817ZM2.3118 11.6936C2.3118 6.27332 6.75462 1.86415 12.2164 1.86415C17.6789 1.86415 22.1241 6.27332 22.1225 11.6913C22.1225 17.1116 17.6782 21.5199 12.2164 21.5199C10.2051 21.5199 8.33234 20.922 6.76714 19.8953L2.96214 21.1044L4.19865 17.4551C3.01301 15.8351 2.3118 13.8442 2.3118 11.6936Z" fill="#64CD46"/>
<path fill-rule="evenodd" clip-rule="evenodd" d="M12.2164 1.86415C6.75462 1.86415 2.3118 6.27332 2.3118 11.6936C2.3118 13.8442 3.01301 15.8351 4.19865 17.4551L2.96214 21.1044L6.76714 19.8953C8.33234 20.922 10.2051 21.5199 12.2164 21.5199C17.6782 21.5199 22.1225 17.1116 22.1225 11.6913C22.1241 6.27332 17.6789 1.86415 12.2164 1.86415ZM17.6132 14.05C17.9012 14.194 18.0937 14.266 18.1673 14.3842C18.2401 14.5039 18.2401 15.0791 17.999 15.7506C17.7595 16.419 16.581 17.063 16.0503 17.1116C15.5213 17.1601 15.5213 17.5428 12.5842 16.3963C9.64868 15.249 7.79548 12.2602 7.64992 12.07L7.64913 12.069C7.50142 11.8742 6.47132 10.5156 6.47132 9.10634C6.47132 7.69609 7.21792 7.00349 7.48166 6.71627C7.74539 6.42906 8.05843 6.35941 8.25095 6.35941C8.44347 6.35941 8.63599 6.38289 8.80425 6.38289C8.97329 6.38289 9.21355 6.28819 9.45381 6.86106C9.69563 7.4347 10.2724 8.84338 10.3444 8.98738C10.4156 9.13216 10.4634 9.29885 10.3687 9.49059C10.2724 9.68233 10.2247 9.8005 10.0799 9.9672C9.93511 10.1355 9.77546 10.3413 9.64633 10.4704C9.50311 10.6128 9.35051 10.7678 9.52033 11.0542C9.68781 11.3414 10.2677 12.2782 11.1262 13.0389C12.2297 14.0148 13.161 14.3153 13.4498 14.4609C13.7385 14.6025 13.9068 14.5783 14.0751 14.3865C14.2449 14.194 14.799 13.5492 14.9891 13.2619C15.1817 12.9747 15.3742 13.0232 15.6403 13.1195C15.904 13.2134 17.326 13.906 17.6132 14.05Z" fill="#64CD46"/>
</svg>
